
<?xml version="1.0" standalone="no"?>
<!DOCTYPE svg PUBLIC "-//W3C//DTD SVG 1.1//EN" "http://www.w3.org/Graphics/SVG/1.1/DTD/svg11.dtd" >
<svg xmlns="http://www.w3.org/2000/svg">
<metadata>Generated by IcoMoon</metadata>
<defs>
<font id="icons" horiz-adv-x="1024">
<font-face units-per-em="1024" ascent="960" descent="-64" />
<missing-glyph horiz-adv-x="1024" />
<glyph unicode="&#x20;" d="" horiz-adv-x="512" />
<glyph unicode="&#xe000;" d="M264.080 374.62c-13.708 13.726-13.668 36.236 0.058 49.944l88.208 88.226c13.726 13.726 36.198 13.726 49.944 0.020l143.246-142.94c13.726-13.704 36.198-13.686 49.906 0.040l392.596 393.524c13.708 13.746 36.18 13.804 49.964 0.116l87.764-87.146c13.762-13.686 13.82-36.1 0.116-49.846l-476.076-477.214c-13.726-13.746-40.812-24.982-60.234-24.982h-41.12c-19.422 0-46.49 11.274-60.194 25.002l-224.178 225.256zM264.080 374.62" horiz-adv-x="1390" />
<glyph unicode="&#xe001;" d="M644.722 580.764v336.57h-265.514v-336.57h-336.542v-265.486h336.542v-336.54h265.514v336.54l336.526-0.014v265.5h-336.526zM644.722 580.764" />
<glyph unicode="&#xe002;" d="M1024 93.596l-301.838 301.796c28.828 53.888 45.226 115.414 45.226 180.792 0 211.982-171.832 383.816-383.816 383.816-211.968 0-383.816-171.832-383.816-383.816 0-211.94 171.848-383.8 383.816-383.8 64.498 0 125.24 15.972 178.588 44.088l302.35-302.364 159.49 159.488zM127.758 576.17c0 141.056 114.76 255.816 255.816 255.816s255.816-114.76 255.816-255.816c0-141.056-114.744-255.8-255.816-255.8s-255.816 114.744-255.816 255.8z" />
<glyph unicode="&#xe003;" d="M158.436-65.082l301.796 301.838c53.888-28.828 115.414-45.24 180.792-45.24 211.982 0 383.816 171.832 383.816 383.8s-171.834 383.844-383.83 383.844c-211.954 0-383.8-171.848-383.8-383.816 0-64.498 15.972-125.226 44.088-178.574l-302.364-302.35 159.502-159.502zM641.010 831.16c141.056 0 255.816-114.76 255.816-255.816s-114.76-255.8-255.816-255.8c-141.056 0-255.8 114.744-255.8 255.8s114.744 255.816 255.8 255.816z" />
<glyph unicode="&#xe004;" d="M-0.584 607.772v-197.192c128.014 0 248.248-50.006 338.674-140.856 89.358-89.8 138.98-208.91 140.26-335.958l197.206-0.028c-2.732 372.11-304.91 674.034-676.14 674.034zM-0.284 957.298v-197.12c454.3 0 824.164-370.262 826.98-826.396l197.162-0.044c-2.844 564.878-461.084 1023.56-1024.142 1023.56zM-0.726 70.542c0-0.001 0-0.003 0-0.004 0-75.429 61.147-136.576 136.576-136.576 75.427 0 136.574 61.145 136.576 136.572 0 75.429-61.147 136.576-136.576 136.576-75.429 0-136.576-61.147-136.576-136.576z" />
<glyph unicode="&#xe005;" d="M1023.356 193.986c-70.658 31.404-175.496 112.296-330.716 140.094 39.69 42.486 69.748 108.934 100.648 187.664 17.918 45.62 14.832 84.498 14.832 139.868 0 40.908 7.718 106.544-2.436 142.61-34.232 121.916-120.762 155.546-222.124 155.546-101.444 0-188.054-33.792-222.236-155.92-10.074-35.968-2.356-101.458-2.356-142.254 0-55.498-3.022-94.506 14.948-140.206 31.144-79.122 60.744-145.472 100.306-187.796-154.002-28.3-258.044-108.608-328.246-139.9-145.26-64.774-145.976-135.706-145.976-135.706v-120.468l1169.868 0.146v120.322c0 0.032-0.684 71.192-146.512 136v0zM1023.356 193.986" horiz-adv-x="1186" />
<glyph unicode="&#xe006;" d="M1020.488 561.806c-1.934 0-54.472 0-116.764 0-62.308 0-77.212 36.054-33.194 80.1 44.060 44.060 81.224 81.208 82.588 82.574 1.366 1.38 1.366 3.584 0 4.964-1.366 1.366-36.808 36.808-78.776 78.776-41.956 41.942-77.384 77.384-78.776 78.776-1.366 1.366-3.598 1.366-4.964 0-1.366-1.38-38.5-38.528-82.56-82.574s-80.086-29.128-80.086 33.166c0 62.308 0 114.83 0 116.764s-1.578 3.47-3.47 3.47c-1.976 0-52.054 0-111.402 0s-109.468 0-111.402 0c-1.92 0-3.47-1.564-3.47-3.47s0-54.456 0-116.764c0-62.294-36.040-77.212-80.086-33.166s-81.208 81.194-82.574 82.574c-1.366 1.366-3.598 1.366-4.964 0-1.352-1.38-36.808-36.822-78.776-78.776-41.956-41.998-77.384-77.384-78.776-78.776-1.366-1.38-1.366-3.584 0-4.964 1.366-1.366 38.514-38.514 82.574-82.574 44.060-44.046 29.128-80.1-33.166-80.1-62.308 0-114.888 0-116.778 0-1.934 0-3.47-1.564-3.47-3.47 0-1.92 0-52.054 0-111.388 0-59.364 0-109.482 0-111.402 0-1.934 1.564-3.47 3.47-3.47 1.92 0 54.472 0 116.764 0 62.308 0 77.212-36.040 33.194-80.086-44.060-44.060-81.208-81.194-82.574-82.56-1.366-1.38-1.366-3.584 0-4.964 1.366-1.366 36.808-36.808 78.776-78.776 41.998-41.956 77.384-77.384 78.776-78.776 1.366-1.366 3.584-1.366 4.95 0 1.366 1.38 38.528 38.528 82.574 82.574 44.074 44.060 80.1 29.128 80.1-33.166 0-62.308 0-114.844 0-116.778s1.578-3.47 3.47-3.47c1.934 0 52.054 0 111.402 0s109.454 0 111.402 0c1.92 0 3.47 1.564 3.47 3.47s0 54.472 0 116.778c0 62.294 36.040 77.212 80.086 33.18s81.208-81.194 82.574-82.574c1.366-1.366 3.598-1.366 4.964 0 1.352 1.38 36.808 36.822 78.776 78.776s77.384 77.384 78.776 78.776c1.366 1.38 1.366 3.584 0 4.964-1.366 1.366-38.5 38.5-82.56 82.56-44.046 44.046-29.112 80.086 33.18 80.086s114.816 0 116.764 0 3.47 1.492 3.47 3.426c0 1.92 0 52.054 0 111.402 0 59.364 0 109.468 0 111.388 0 1.936-1.564 3.5-3.512 3.5zM520.732 278.898c-94.792 0-171.592 76.8-171.592 171.592 0 94.748 76.814 171.592 171.592 171.592 94.748 0 171.592-76.828 171.592-171.592-0.014-94.792-76.844-171.592-171.592-171.592z" />
<glyph unicode="&#xe007;" d="M511.16 434.104l-263.054 263.054h-248.69l-0.61-0.64 512.354-512.34 512.342 512.34-0.612 0.64h-248.66z" />
<glyph unicode="&#xe008;" d="M506.852 948.372c-278.892 0-504.986-226.080-504.986-504.988 0-278.906 226.094-504.986 504.986-504.986 278.892 0 504.986 226.080 504.986 504.986 0 278.908-226.094 504.988-504.986 504.988v0zM506.852 64.646c-208.84 0-378.74 169.886-378.74 378.738 0 208.84 169.9 378.74 378.74 378.74 208.84 0 378.74-169.9 378.74-378.74 0-208.852-169.9-378.738-378.74-378.738v0zM751.868 330.212l-199.75 134.93v232.252c0 5.554-2.258 10.968-6.158 14.896-3.914 3.914-9.342 6.158-14.896 6.158h-55.24c-5.556 0-10.956-2.244-14.884-6.158-3.914-3.928-6.158-9.356-6.158-14.896v-274.264c0-5.556 2.244-10.97 6.158-14.898 1.586-1.584 3.422-2.904 5.428-3.9l232.744-155.9c3.506-2.314 7.56-3.548 11.67-3.548 1.488 0 2.988 0.168 4.46 0.476 5.57 1.178 10.382 4.574 13.426 9.426l29.288 46.852c5.99 9.58 3.296 22.234-6.088 28.574v0zM751.868 330.212" />
<glyph unicode="&#xe009;" d="M999.836 167.58l-379.178 654.378c-59.008 101.846-155.676 101.902-214.812 0.142l-380.502-654.676c-59.136-101.76-11.222-185.016 106.468-185.016h761.316c117.702-0.002 165.716 83.326 106.708 185.172zM516.722 97.65c-36.452 0-65.48 28.984-65.48 65.48 0 36.452 29 65.48 65.48 65.48 36.438 0 65.48-29 65.48-65.48-0.030-36.496-29.028-65.48-65.48-65.48zM563.114 269.994h-92.772l-31.218 377.77h155.278l-31.288-377.77z" />
<glyph unicode="&#xe00a;" d="M960 679.052l-214.57 214.534-575.816-575.826-103.268-317.764 317.888 103.302 575.766 575.754zM143.092 76.714l69.716 214.57 144.88-144.868-214.596-69.702z" />
<glyph unicode="&#xe00b;" d="M521.486 959.544c-1.906 0-3.3 0.114-5.176 0.056-1.564 0.028-3.542-0.1-5.12-0.1-154.040 0-278.884-126.52-278.884-278.912 0-152.42 284.118-744.618 284.118-744.618s284.004 592.726 284.004 744.618-124.9 278.956-278.942 278.956zM515.684 577.394c-70.528 0-127.758 57.188-127.758 127.744s57.202 127.772 127.758 127.772c70.57 0 127.772-57.216 127.772-127.772s-57.202-127.744-127.772-127.744z" />
<glyph unicode="&#xe00c;" d="M1023.8 137.586c2.104 6.2 3.512 12.714 3.512 19.584l0.002 569.586c0 6.528-1.308 12.714-3.214 18.632l-334.62-286.522 334.32-321.28zM514.376 389.774l132.752 108.004 336.042 287.644c-5.518 1.636-11.236 2.788-17.266 2.788h-903c-6.044 0-11.776-1.152-17.308-2.802l336.242-287.786 132.538-107.848zM965.888 95.73c5.774 0 11.264 1.066 16.584 2.588l-337.608 324.28-130.488-106.198-130.29 106.026-337.75-324.122c5.304-1.494 10.794-2.574 16.568-2.574h902.984zM4.68 745.386c-1.906-5.916-3.214-12.104-3.214-18.632v-569.586c0-6.884 1.408-13.398 3.512-19.584l334.492 321.138-334.79 286.664z" />
<glyph unicode="&#xe00d;" d="M666.696 512.994v168.022c0 154.026-124.884 278.912-278.912 278.912-1.92 0-3.298 0.112-5.19 0.056-1.55 0.028-3.528-0.086-5.106-0.086-154.056 0-278.884-124.884-278.884-278.912v-167.992h-98.716v-576.896h768.142v576.896h-101.334zM238.11 680.986c0 76.83 62.522 139.336 139.364 139.336 2.19 0 6.812 0.114 6.812 0.114 0 0 2.332-0.086 3.498-0.086 76.83 0 139.364-62.506 139.364-139.334v-168.022h-289.024v167.992h-0.014zM238.11 680.986" horiz-adv-x="782" />
<glyph unicode="&#xe00e;" d="M512 960c-282.77 0-512-229.23-512-512s229.23-512 512-512 512 229.23 512 512-229.23 512-512 512zM816.056 143.944c-39.518-39.516-85.512-70.532-136.708-92.186-13.006-5.5-26.214-10.328-39.6-14.492v76.734c0 40.334-13.834 70-41.5 89 17.334 1.666 33.25 4 47.75 7s29.834 7.334 46 13 30.666 12.416 43.5 20.25 25.166 18 37 30.5 21.75 26.666 29.75 42.5 14.334 34.834 19 57 7 46.584 7 73.25c0 51.666-16.834 95.666-50.5 132 15.334 40 13.666 83.5-5 130.5l-12.5 1.5c-8.666 1-24.25-2.666-46.75-11s-47.75-22-75.75-41c-39.666 11-80.834 16.5-123.5 16.5-43 0-84-5.5-123-16.5-17.666 12-34.416 21.916-50.25 29.75-15.834 7.834-28.5 13.166-38 16s-18.334 4.584-26.5 5.25-13.416 0.834-15.75 0.5-4-0.666-5-1c-18.666-47.334-20.334-90.834-5-130.5-33.666-36.334-50.5-80.334-50.5-132 0-26.666 2.334-51.084 7-73.25s11-41.166 19-57 17.916-30 29.75-42.5 24.166-22.666 37-30.5 27.334-14.584 43.5-20.25 31.5-10 46-13 30.416-5.334 47.75-7c-27.334-18.666-41-48.334-41-89v-78.23c-15.098 4.494-29.98 9.804-44.6 15.988-51.194 21.654-97.188 52.67-136.706 92.186-39.516 39.518-70.534 85.512-92.186 136.708-22.398 52.958-33.756 109.262-33.756 167.348s11.358 114.39 33.758 167.35c21.654 51.194 52.67 97.188 92.186 136.706s85.512 70.534 136.706 92.186c52.96 22.4 109.264 33.758 167.35 33.758s114.39-11.358 167.35-33.758c51.196-21.654 97.19-52.67 136.708-92.186 39.516-39.516 70.532-85.512 92.186-136.706 22.398-52.96 33.756-109.264 33.756-167.35s-11.358-114.39-33.758-167.35c-21.654-51.194-52.67-97.19-92.186-136.706z" />
<glyph unicode="&#xe00f;" d="M512 960c-282.77 0-512-229.23-512-512s229.23-512 512-512 512 229.23 512 512-229.23 512-512 512zM806.242 598.912c0.292-6.508 0.442-13.056 0.442-19.638 0-200.622-152.708-431.964-431.958-431.964-85.736 0-165.536 25.136-232.726 68.214 11.876-1.408 23.962-2.126 36.216-2.126 71.13 0 136.59 24.276 188.55 64.994-66.434 1.22-122.5 45.122-141.824 105.432 9.274-1.768 18.784-2.722 28.566-2.722 13.846 0 27.258 1.856 39.998 5.324-69.452 13.952-121.786 75.312-121.786 148.868 0 0.64 0 1.278 0.016 1.91 20.47-11.37 43.878-18.2 68.764-18.988-40.74 27.222-67.54 73.692-67.54 126.368 0 27.822 7.488 53.904 20.556 76.324 74.878-91.854 186.748-152.292 312.924-158.628-2.588 11.118-3.93 22.702-3.93 34.604 0 83.84 67.98 151.812 151.818 151.812 43.666 0 83.124-18.436 110.818-47.94 34.58 6.808 67.074 19.442 96.412 36.84-11.336-35.454-35.41-65.206-66.752-83.994 30.71 3.668 59.968 11.832 87.194 23.904-20.35-30.448-46.090-57.186-75.758-78.594z" />
<glyph unicode="&#xe010;" d="M512 960c282.77 0 512-229.23 512-512 0-261.094-195.438-476.53-448-508.026v380.026h176l16 128h-192v64c0 35.346 28.654 64 64 64h128v128h-128c-106.040 0-192-85.96-192-192v-64h-96v-128h96v-380.026c-252.562 31.496-448 246.932-448 508.026 0 282.77 229.23 512 512 512z" />
<glyph unicode="&#xe011;" d="M437.006 141.838c0-75.068-46.39-134.392-177.758-139.176-76.984 43.786-141.49 106.952-186.908 182.866 23.69 58.496 97.692 103.046 182.316 102.114 24.022-0.252 46.41-4.114 66.744-10.7 55.908-38.866 101-63.152 112.324-107.448 2.114-8.964 3.282-18.206 3.282-27.656zM512 960c-147.94 0-281.196-62.77-374.666-163.098 36.934 20.452 80.538 32.638 126.902 32.638 67.068 0 256.438 0 256.438 0l-57.304-60.14h-67.31c47.496-27.212 72.752-83.248 72.752-145.012 0-56.692-31.416-102.38-75.78-137.058-43.28-33.802-51.492-47.966-51.492-76.734 0-24.542 51.722-61.098 75.5-78.936 82.818-62.112 99.578-101.184 99.578-178.87 0-78.726-68.936-157.104-185.866-183.742 56.348-21.338 117.426-33.048 181.248-33.048 282.77 0 512 229.23 512 512s-229.23 512-512 512zM768 576v-128h-64v128h-128v64h128v128h64v-128h128v-64h-128zM365.768 620.528c11.922-90.776-27.846-149.19-96.934-147.134-69.126 2.082-134.806 65.492-146.74 156.242-11.928 90.788 34.418 160.254 103.53 158.196 69.090-2.074 128.22-76.542 140.144-167.304zM220.886 317.932c-74.68 0-138.128-25.768-182.842-63.864-24.502 59.82-38.044 125.29-38.044 193.932 0 56.766 9.256 111.368 26.312 162.396 7.374-99.442 77.352-176.192 192.97-176.192 8.514 0 16.764 0.442 24.874 1.022-7.95-15.23-13.622-32.19-13.622-49.982 0-29.97 16.488-47.070 36.868-66.894-15.402 0-30.27-0.418-46.516-0.418z" />
<glyph unicode="&#xe012;" d="M512 960c-282.77 0-512-229.23-512-512s229.23-512 512-512 512 229.23 512 512-229.23 512-512 512zM512 32c-229.75 0-416 186.25-416 416s186.25 416 416 416 416-186.25 416-416-186.25-416-416-416zM384 672l384-224-384-224z" />
<glyph unicode="&#xe013;" d="M827.392 409.586h196.722l-195.37 184.576v298.624h-157.768v-149.562l-158.734 149.96-512.356-483.598h190.378v-413.142h227.3v292.040h189.796v-292.040h220.032z" />
<glyph unicode="&#xe014;" d="M906.764 709.49l-14.664 134.77c0 40.362-47.388 73.074-87.736 73.074h-662.97c-40.348 0-87.722-32.726-87.722-73.074l-14.678-132.252v-604.048h75.776v-63.288c0-36.424 29.526-66.006 65.978-66.006 36.45 0 66.004 29.598 66.004 66.006v63.288h457.116v-63.288c0-36.424 29.526-66.006 65.992-66.006s66.006 29.598 66.006 66.006v63.288h70.898v601.53zM370.33 864.84h207.53c15.56 0 28.174-12.616 28.174-28.16 0-15.56-12.614-28.176-28.174-28.176h-207.53c-15.56 0-28.174 12.616-28.174 28.176 0 15.544 12.6 28.16 28.174 28.16v0zM146.542 698.61c0 26.31 21.32 47.616 47.602 47.616h559.9c26.284 0 47.588-21.32 47.588-47.616l14.664-291.114c0-26.312-21.32-47.632-47.588-47.632h-589.24c-26.284 0-47.588 21.334-47.588 47.632l14.662 291.114zM246.752 189.71c-12.302-13.866-30.080-22.812-50.118-22.812-36.58 0-66.19 29.27-67.058 65.65-0.014 0.54-0.172 1.038-0.172 1.578 0 37.134 30.096 67.2 67.216 67.2 37.148 0 67.228-30.080 67.228-67.2 0.028-17.11-6.556-32.526-17.096-44.416v0zM756.42 166.898c-21.334 0-40.106 10.112-52.424 25.614-9.116 11.492-14.79 25.814-14.79 41.6 0 37.134 30.094 67.214 67.214 67.214 37.134 0 67.214-30.094 67.214-67.214 0-1.436-0.326-2.774-0.412-4.182-2.204-35.142-31.118-63.032-66.802-63.032v0zM756.42 166.898" horiz-adv-x="952" />
<glyph unicode="&#xe015;" d="M1200.3 644.258c-58.822 40.248-115.816 47.49-145.198 47.49-6.698 0-12.914-0.202-18.952-0.482v102.82h-735.328v-407.432c0-179.432 145.438-266.608 324.806-266.608h85.716c119.304 0 223.29 6.256 279.784 102.076 9.826-1.322 27.896-3.248 51.382-3.248 31.664 0 87.658 6.658 149.746 47.332 62.872 40.288 89.966 94.938 89.966 193.888 0 83.528-22.44 144.132-81.922 184.164v0zM1128.222 362.488c-31.404-21.46-69.83-27.998-85.712-27.998-3.832 0-7.402 0.14-10.852 0.262 2.708 16.906 4.492 34.152 4.492 51.882v188.814c5.878 0.382 12.174 0.622 18.952 0.622 11.792 0 51.24-6.878 79.178-26.832 27.154-20.216 32.228-51.682 32.228-89.144 0-42.016-7.702-75.726-38.286-97.606v0zM1128.222 362.488" horiz-adv-x="1464" />
<glyph unicode="&#xe016;" d="M512 960c-282.766 0-512-229.22-512-512s229.234-512 512-512c282.766 0 512 229.22 512 512 0 282.78-229.234 512-512 512v0zM757.404 374.158l-247.14-246.358-247.124 246.358c0 0-82.404 77.056-82.404 164.778 0 123.578 80.1 165.534 164.010 165.534 83.898 0 165.518-100.666 165.518-100.666 0 0 81.622 100.666 165.534 100.666 83.91 0 164.010-41.942 164.010-165.534 0-87.722-82.404-164.778-82.404-164.778v0zM757.404 374.158" />
<glyph unicode="&#xe018;" d="M496.432 721.534c-15.418 0-27.916-12.648-27.916-28.066v-266.496c0-15.502 12.62-28.068 27.916-28.068h22.72c15.418 0 27.916 12.648 27.916 28.068v266.496c0 15.5-12.62 28.066-27.916 28.066h-22.72zM377.14 227.644c12.626-8.852 30.048-5.78 38.996 6.986l125.266 178.904c8.892 12.71 5.934 30.146-6.762 39.038l-17.618 12.332c-12.624 8.836-30.060 5.764-38.996-7l-125.266-178.892c-8.906-12.722-5.932-30.144 6.762-39.038l17.618-12.33zM506.852 948.372c-278.892 0-504.986-226.080-504.986-504.988 0-278.906 226.094-504.986 504.986-504.986 278.892 0 504.986 226.080 504.986 504.986 0 278.908-226.094 504.988-504.986 504.988v0zM506.852 64.646c-208.84 0-378.74 169.886-378.74 378.738 0 208.84 169.9 378.74 378.74 378.74 208.84 0 378.74-169.9 378.74-378.74 0-208.852-169.9-378.738-378.74-378.738v0zM506.852 64.646" />
<glyph unicode="&#xe019;" d="M524.486 693.48c-15.418 0-27.916-12.482-27.916-28.106v-294.474c0-15.522 12.62-28.106 27.916-28.106h22.722c15.416 0 27.916 12.482 27.916 28.106v294.474c0 15.522-12.622 28.106-27.916 28.106h-22.722zM340.332 440.902l183.086-100.562c13.004-7.14 29.92-2.398 37.86 10.744l11.040 18.222c7.912 13.074 3.83 29.43-9.23 36.598l-183.086 100.548c-13.004 7.154-29.92 2.412-37.874-10.716l-11.026-18.222c-7.91-13.074-3.842-29.444 9.23-36.612zM506.852 948.372c-278.892 0-504.986-226.080-504.986-504.988 0-278.906 226.094-504.986 504.986-504.986 278.892 0 504.986 226.080 504.986 504.986 0 278.908-226.094 504.988-504.986 504.988v0zM506.852 64.646c-208.84 0-378.74 169.886-378.74 378.738 0 208.84 169.9 378.74 378.74 378.74 208.84 0 378.74-169.9 378.74-378.74 0-208.852-169.9-378.738-378.74-378.738v0zM506.852 64.646" />
<glyph unicode="&#xe01a;" d="M527.616 620.486l156.26-156.33 168.676 168.576 170.808-171.606v498.788l-498.062 0.412 171.59-170.538zM326.998 106.922l169.3 169.302-156.258 156.316-168.69-168.562-170.782 171.62v-498.844l498.034-0.356z" />
<glyph unicode="&#xe01b;" d="M512 960c-282.766 0-512-229.22-512-512s229.234-512 512-512 512 229.22 512 512-229.234 512-512 512zM545.934 141.924c-15.204-14.664-36.168-21.532-59.762-21.448-0.184-0.014-0.37-0.014-0.54-0.014-22.472 0-42.68 7.054-57.586 21.404-15.246 14.408-22.856 34.602-22.728 56.932-0.142 22.3 7.466 42.482 22.826 56.618 15.062 14.136 35.428 21.006 58.012 20.92 23.51 0.072 44.36-6.628 59.634-20.92 15.36-14.136 22.968-34.318 22.826-56.618 0.174-22.328-7.436-42.51-22.682-56.874zM682.966 533.49c-7.978-19.812-18.048-37.006-30.25-51.37-11.776-13.824-24.746-26.084-38.926-36.694-12.758-9.586-24.448-19.812-34.986-30.564-10.112-10.424-18.716-22.414-25.884-36.28-6.386-12.188-10.084-29.084-10.084-50.872v-14.222h-119.552l-1.224 12.872c-0.968 10.040-1.48 19.612-1.48 28.772 0 18.332 1.92 35.044 6.044 49.992 5.86 21.504 14.052 40.376 24.746 56.59 10.382 15.702 22.328 29.496 35.854 41.202 12.416 10.766 23.95 21.034 34.646 30.92 10.14 9.316 18.39 18.888 24.888 28.658 5.49 8.264 8.392 18.12 8.476 30.848-0.114 16.896-4.466 28.232-12.488 36.978-6.216 7.068-21.404 13.014-47.432 12.9-7.864 0-16.384-0.84-25.558-2.602-9.272-1.848-18.588-4.438-27.89-7.78-9.458-3.414-18.474-7.324-27.036-11.762-8.732-4.48-16.398-9.046-23.026-13.596l-13.27-9.174-54.884 105.4 10.41 7.126c22.258 15.246 47.73 27.72 76.274 37.546 29.412 10.070 64.142 14.904 104.12 14.904 54.314 0.042 98.958-13.27 131.64-41.33 32.64-27.776 49.308-66.858 49.11-112.796 0.020-29.558-3.862-54.732-12.238-75.666z" />
<glyph unicode="&#xe01c;" d="M64 768h896v-192h-896zM64 512h896v-192h-896zM64 256h896v-192h-896z" />
<glyph unicode="&#xe01d;" d="M0 960v-204.8h614.4v204.8h-614.4zM0 550.4v-204.8h1024v204.8h-1024zM0 140.8v-204.8h409.6v204.8h-409.6zM614.4 140.8v-204.8h409.6v204.8h-409.6zM819.2 960v-204.8h204.8v204.8h-204.8zM819.2 960" />
<glyph unicode="&#xe01e;" d="M1335.042 722.366c-173.782 0-263.538-122.892-263.538-274.488 0-151.604 87.538-274.51 263.538-274.51 175.988 0 263.528 122.906 263.528 274.51 0.006 151.596-89.752 274.488-263.528 274.488v0 0 0zM1466.516 447.386v0c-0.124-97.486-32.972-176.444-131.474-176.444-98.5 0-131.362 78.952-131.458 176.444v0 0.484c0.102 97.48 32.964 176.43 131.458 176.43 98.496 0 131.35-78.95 131.474-176.43v0-0.484c0 0 0 0.082 0 0v0 0zM556.908 180.734v758.924c0 0 100.102 14.218 107.862 15.264 8.794 1.186 20.466-5.074 20.466-17.448v-281.336c20.77 19.748 43.646 35.668 68.576 47.798 24.95 12.116 54.206 18.184 87.82 18.184 29.1 0 54.882-4.936 77.394-14.814 22.528-9.856 41.32-23.726 56.384-41.55 15.066-17.852 26.502-39.148 34.296-63.914 7.788-24.764 11.686-52.042 11.686-81.832v-339.27h-128.332v339.27c0 32.554-7.538 57.756-22.602 75.606-15.074 17.832-37.674 26.752-67.818 26.752-22.166 0-42.936-5.024-62.324-15.078-19.406-10.048-37.762-23.714-55.080-41.046v-385.51h-128.328zM2270.166 173.422c-88.318 0-143.658 51.396-143.658 147.276v284.162h-99.526c0 0 21.148 73.162 22.828 78.924 1.678 5.754 6.052 11.94 14.838 13.162 8.786 1.222 61.73 8.606 61.73 8.606l24.466 155.598c0 0 71.86 10.13 83.244 11.83 10.76 1.61 20.522-6.138 20.522-17.856v-149.572h125.868v-100.692h-125.868v-280.332c0-38.276 23.304-52.904 45.638-52.904 13.654 0 32.344 7.25 46.304 13.722 8.612 3.984 21.972 1.030 25.426-11.004 3.052-10.664 19.278-67.26 19.278-67.26-14-9.038-58.256-33.66-121.090-33.66v0 0 0zM1956.454 603.18c-25.010 8.124-72.024 21.128-116.742 21.128-45.558 0-81.41-15.742-81.41-53.628 0-47.318 77.26-61.094 130.148-80.384 35.36-12.896 130.192-38.036 130.192-140.020 0-123.882-102.886-176.848-212.624-176.848-109.766 0-174.6 40.822-174.6 40.822 0 0 17.024 60.14 20.464 72.008 3.12 10.684 15.542 14.432 23.454 11.394 28.24-10.888 79.246-26.020 136.9-26.020 58.372 0 86.618 17.822 86.618 55.818 0 50.568-78.822 66.022-130.954 82.466-35.92 11.318-130.968 37.716-130.968 149.876 0 110.49 97.020 162.328 200.706 162.328 87.778 0 130.83-18.354 162.988-34.738 0 0-17.918-62.454-20.588-71.758-3.14-11.058-12.212-16.13-23.584-12.444 0 0 11.372-3.686 0 0v0 0zM506.818 703.826c0 11.952-10.212 18.792-19.952 17.68-43.068-4.936-73.792-25.202-93.67-44.070-39.032 30.58-93.212 45.182-154.020 45.182-121.916 0-217.168-58.842-217.168-187.148 0-73.652 31.352-124.408 81.144-154.286-36.978-17.5-61.606-54.642-61.606-91.156 0-61.082 48.252-80.208 48.252-80.208 0 0-84.37-40.952-84.37-122.878 0-104.878 96.516-147.284 214.452-147.284 170 0 286.96 70.216 286.96 199.142 0 79.348-60.72 123.152-193.038 128.36-78.524 3.1-129.384 5.926-141.986 10.096-16.65 5.53-24.834 18.86-24.834 33.578 0 16.246 13.346 31.716 34.384 42.336 18.348-3.25 37.716-4.854 57.824-4.854 122.020 0 217.176 58.672 217.176 187.148 0 31.154-5.624 58.2-15.85 81.306 17.926 9.564 39.982 16.296 66.316 16.296-0.014 0-0.014 59.858-0.014 70.76 0 0 0-10.902 0 0v0 0zM170.832 180.072c0 0 64.024-2.424 127.998-5.386 71.874-3.326 94.272-18.814 94.272-56.030 0-45.468-62.46-89.696-149.748-89.696-82.856 0-124.244 28.826-124.244 76.822 0.008 27.538 14.542 58.344 51.722 74.29 0 0-37.18-15.946 0 0v0 0zM239.408 437.876c-57.756 0-102.816 30.678-102.816 97.594 0 66.926 45.102 97.602 102.816 97.602 57.724 0 102.818-30.594 102.818-97.602 0-67.006-45.048-97.594-102.818-97.594v0 0 0zM239.408 437.876" horiz-adv-x="2396" />
<glyph unicode="&#xe01f;" d="M337.482 583.798c0-0.6-0.162-2.692-0.454-6.292-0.308-3.612-1.946-7.504-4.96-11.702-2.998-4.198-7.87-7.958-14.614-11.25-6.758-3.306-16.574-4.958-29.476-4.958-17.408 0-30.984 0.98-40.726 2.926-9.758 1.96-16.954 4.652-21.606 8.104-4.652 3.452-7.49 7.342-8.544 11.702-1.052 4.344-1.58 8.778-1.58 13.268 0 44.706 11.25 83.032 33.748 114.98 22.5 31.95 54.082 58.12 94.736 78.528 40.638 20.392 89.394 35.4 146.242 44.996 56.846 9.596 119.632 14.396 188.328 14.396 45.596 0 93.374-1.494 143.33-4.492 49.942-2.998 101.464-8.25 154.566-15.754 15.302-4.2 25.878-10.196 31.73-17.994 5.85-7.812 8.776-16.062 8.776-24.752 0-5.704-0.834-11.702-2.472-18.008-1.652-6.29-4.126-12.142-7.432-17.538-3.306-5.414-7.724-9.832-13.268-13.284-5.558-3.452-12.082-5.178-19.588-5.178-1.198 0-2.472 0.072-3.818 0.234-1.344 0.146-2.778 0.366-4.27 0.672-19.5 3.292-40.654 6.218-63.46 8.778-22.79 2.546-46.65 4.652-71.548 6.29-24.898 1.654-50.614 2.852-77.166 3.598-26.55 0.762-53.482 1.128-80.778 1.128-8.104 0-17.774-0.44-29.024-1.346-11.248-0.892-22.132-1.946-32.636-3.146-11.996-1.2-24.444-2.706-37.346-4.506 0-3.29-0.294-7.050-0.892-11.248-0.6-4.2-1.508-10.050-2.708-17.556-1.198-7.488-2.618-17.1-4.27-28.788-1.654-11.702-3.672-26.784-6.072-45.232-2.398-18.446-5.104-40.726-8.104-66.822-2.998-26.098-6.304-57.154-9.904-93.156h249.754c7.198 0 12.742-1.418 16.648-4.272 3.906-2.852 6.758-6.45 8.558-10.796 1.798-4.358 2.838-9.010 3.144-13.954 0.292-4.946 0.454-9.67 0.454-14.176 0-14.394-3.16-25.204-9.45-32.402-6.306-7.198-12.756-10.796-19.354-10.796-2.106 0-8.996-0.22-20.7-0.672-11.702-0.454-25.95-0.982-42.744-1.58-16.808-0.6-35.254-1.274-55.354-2.020-20.1-0.76-39.526-1.434-58.28-2.032-18.754-0.6-35.84-1.128-51.304-1.566-15.446-0.454-27.062-0.674-34.874-0.674-5.398-36.308-11.542-71.254-18.446-104.856-6.904-33.602-15.522-65.024-25.878-94.282-10.342-29.242-22.572-55.866-36.674-79.872-14.102-23.99-30.896-44.544-50.396-61.644-19.5-17.102-41.998-30.384-67.496-39.834-25.512-9.45-54.754-14.176-87.756-14.176-6.906 0-15.156 0.454-24.752 1.362-9.596 0.892-19.646 2.398-30.15 4.49-10.502 2.106-20.918 4.886-31.276 8.324-10.342 3.452-19.572 7.738-27.676 12.83-8.090 5.104-14.702 11.028-19.794 17.772-5.104 6.76-7.65 14.484-7.65 23.188 0 4.49 0.98 10.414 2.926 17.772 1.946 7.344 4.944 14.468 8.996 21.374 4.052 6.89 9.158 12.902 15.302 17.992 6.144 5.106 13.576 7.65 22.28 7.65 9.888 0 20.318-1.652 31.276-4.944 10.942-3.306 22.264-6.978 33.966-11.030 11.704-4.052 23.7-7.724 36.002-11.014 12.302-3.306 24.752-4.96 37.346-4.96 9.904 0 19.5 3.98 28.804 11.922 9.304 7.958 18.080 18.9 26.332 32.856 8.25 13.956 16.12 30.296 23.624 49.050 7.49 18.754 14.542 39 21.138 60.752 6.614 21.752 12.758 44.472 18.462 68.17 5.69 23.698 10.942 47.396 15.74 71.108h-55.34c-5.104 0-11.41 0.6-18.9 1.8-7.504 1.2-14.702 3.218-21.606 6.072-6.904 2.852-12.756 6.67-17.554 11.468-4.798 4.798-7.198 10.81-7.198 18.008 0 5.090 1.346 9.904 4.052 14.394 2.706 4.506 7.198 7.798 13.502 9.904l44.106 9.45c12.596 2.692 23.772 5.018 33.514 6.978l25.878 5.164c7.504 1.506 14.394 2.706 20.7 3.612 7.196 32.096 12.902 59.992 17.1 83.69 4.198 23.7 7.798 45.232 10.796 64.586 2.998 19.338 5.852 37.566 8.558 54.666 2.692 17.102 5.852 35.256 9.45 54.448-26.098-7.49-48.758-16.5-67.95-26.99-19.208-10.502-35.108-21.752-47.704-33.762-12.594-11.996-21.898-24.444-27.896-37.346-5.998-12.904-8.996-25.498-8.996-37.8 0 0 0 12.302 0 0v0 0zM337.482 583.798" />
<glyph unicode="&#xe020;" d="M149.932 85.974c-199.94 199.94-199.94 524.132 0 724.074 200.004 199.94 524.134 199.94 724.136 0 199.94-199.942 199.94-524.134 0-724.074-200.002-199.97-524.132-199.97-724.136 0zM783.566 719.546c-150.002 149.97-393.13 149.97-543.070 0-150.002-149.97-150.002-393.1 0-543.070 149.94-149.972 393.068-149.972 543.070 0 149.942 149.972 149.942 393.1 0 543.070zM376.248 221.726l-90.502 90.532 135.752 135.754-135.752 135.752 90.502 90.534 135.752-135.784 135.754 135.784 90.5-90.534-135.752-135.752 135.752-135.754-90.5-90.532-135.754 135.784-135.752-135.784z" />
<glyph unicode="&#xe021;" d="M512 960c-282.752 0-512-229.248-512-512s229.248-512 512-512 512 229.248 512 512-229.248 512-512 512zM432.64 211.744l-235.584 235.616 90.496 90.496 145.056-145.12 307.744 307.744 90.496-90.496-398.208-398.24z" />
<glyph unicode="&#xe022;" d="M512 960c-282.77 0-512-229.23-512-512s229.23-512 512-512 512 229.23 512 512-229.23 512-512 512zM448 768h128v-128h-128v128zM640 128h-256v64h64v256h-64v64h192v-320h64v-64z" />
<glyph unicode="&#xe023;" d="M204.8 447.772l570.778 384.16v-231.082c0 0 658.25-50.518 658.25-537.306 0 0-83.264 199.772-401.728 237.638-52.086 6.188-131.23 12.288-256.728 12.288v-249.902l-570.572 384.204zM204.8 447.772" horiz-adv-x="1638" />
<glyph unicode="&#xe024;" d="M1125.808 376.288c-0.336 0.56-0.688 1.104-0.992 1.68-11.024 20.272-24.688 38.608-40.56 54.496l-216.88 216.848c-0.88 0.912-1.712 1.664-2.464 2.336-27.632 26.8-61.216 46.448-97.744 57.296 42.096-44.064 69.968-99.104 80.784-159.664 3.216-18.16 4.88-36.72 4.88-55.184 0-7.36-0.32-15.12-0.976-23.68l135.152-135.184c11.744-11.744 20.464-26.56 25.152-42.832 2.72-9.344 4.064-19.056 4.064-28.912 0-10.912-1.664-21.664-4.944-31.984-4.976-15.552-13.12-29.072-24.288-40.224l-88.128-88.128c-18.88-18.88-44.432-29.28-71.968-29.28s-53.088 10.4-71.968 29.28l-216.832 216.832c-7.808 7.808-14.288 17.024-19.216 27.44-6.528 13.68-9.968 29.088-9.968 44.496 0 10.4 1.536 20.688 4.528 30.56 0.288 0.88 0.592 1.744 0.944 2.624l0.528 1.44c1.28 3.632 2.464 6.56 3.712 9.248 0.72 1.568 1.504 3.088 2.32 4.624 1.472 2.784 3.12 5.536 5.056 8.464l0.816 1.216c0.592 0.88 1.152 1.776 1.776 2.624 3.216 4.368 6.32 8.032 9.504 11.184l33.6 33.6c-0.368 4-1.28 7.568-2.752 10.592-1.408 2.976-3.12 5.504-5.152 7.536l-84.24 84.24-38.688-38.72c-3.744-3.744-7.504-7.776-11.472-12.368-0.592-0.656-1.152-1.376-1.712-2.064l-1.248-1.536c-2.656-3.152-5.184-6.336-7.632-9.6-0.848-1.088-1.632-2.224-2.432-3.312l-0.464-0.656c-2.4-3.376-4.72-6.784-6.944-10.256l-0.592-0.912c-0.528-0.816-1.056-1.664-1.6-2.464-2.592-4.256-5.088-8.56-7.344-12.784l-0.336-0.624-0.32-0.592c-7.872-14.976-14.192-30.912-18.752-47.44-1.632-5.872-2.912-11.312-3.968-16.56-3.216-16.032-4.848-32.224-4.848-48.32 0-14.16 1.28-28.368 3.712-42.192 8.624-48.432 31.44-92.288 65.904-126.784l216.864-216.832c93.312-93.312 245.12-93.312 338.432 0l88.128 88.128c30.16 30.176 51.68 68.304 62.256 110.304 4.992 19.968 7.568 39.792 7.568 58.928 0 37.808-9.088 75.584-26.256 109.216-0.192 0.384-0.4 0.8-0.56 1.216-0.16 0.32-0.288 0.64-0.464 0.96-0.288 0.608-0.624 1.12-0.976 1.68v0zM716 665.856l-216.832 216.864c-93.312 93.28-245.12 93.28-338.432-0.032l-88.128-88.128c-30.192-30.16-51.68-68.32-62.256-110.288-4.992-19.968-7.568-39.776-7.568-58.944 0-37.808 9.088-75.568 26.256-109.216 0.224-0.368 0.4-0.816 0.56-1.216 0.16-0.32 0.288-0.656 0.464-0.976 0.288-0.528 0.592-1.056 0.944-1.632 0.352-0.576 0.688-1.12 0.992-1.712 11.056-20.288 24.72-38.592 40.592-54.464l216.848-216.848c0.912-0.944 1.712-1.68 2.496-2.336 27.632-26.784 61.184-46.432 97.712-57.28-42.064 44.064-69.936 99.088-80.72 159.664-3.248 18.096-4.912 36.688-4.912 55.184 0 7.312 0.32 15.056 0.976 23.68l-135.152 135.184c-11.744 11.744-20.464 26.56-25.152 42.848-2.72 9.344-4.096 19.024-4.096 28.88 0 10.912 1.68 21.68 4.976 32 4.976 15.568 13.12 29.088 24.288 40.224l88.128 88.128c39.024 39.024 104.944 39.024 143.936 0l216.832-216.832c7.808-7.808 14.288-17.024 19.216-27.44 6.496-13.68 9.968-29.056 9.968-44.496 0-10.4-1.536-20.688-4.528-30.56-0.288-0.912-0.592-1.776-0.944-2.688l-0.528-1.376c-1.28-3.632-2.464-6.56-3.712-9.248-0.72-1.568-1.536-3.088-2.336-4.624-1.472-2.816-3.152-5.664-5.024-8.464l-0.752-1.12c-0.592-0.944-1.184-1.84-1.84-2.72-3.216-4.368-6.32-8.032-9.472-11.184l-33.632-33.6c0.368-4 1.28-7.568 2.752-10.624 1.408-2.976 3.12-5.504 5.152-7.504l84.24-84.24 38.688 38.72c3.68 3.68 7.44 7.744 11.504 12.368 0.592 0.688 1.184 1.408 1.744 2.128l1.184 1.44c2.656 3.184 5.184 6.368 7.632 9.648 0.992 1.296 1.936 2.608 2.88 3.952 2.464 3.376 4.752 6.784 7.008 10.256l0.72 1.136 1.408 2.256c2.624 4.224 5.088 8.512 7.376 12.784l0.32 0.576 0.336 0.64c7.872 14.928 14.192 30.88 18.784 47.424 1.568 5.696 2.848 11.152 3.936 16.592 3.216 16 4.848 32.192 4.848 48.288 0 14.192-1.28 28.384-3.712 42.208-8.688 48.384-31.472 92.224-65.968 126.72v0zM716 665.856" horiz-adv-x="1168" />
</font>
</defs>
</svg>
